<svg width="180" height="162" viewBox="0 0 180 162" fill="none" xmlns="http://www.w3.org/2000/svg">
    <path
        d="M45.5556 63.25H38.4444C28.488 63.25 23.5097 63.25 19.7068 65.1848C16.3617 66.8861 13.642 69.6018 11.9377 72.9415C10 76.7382 10 81.7091 10 91.65V123.6C10 133.541 10 138.512 11.9377 142.309C13.642 145.648 16.3617 148.364 19.7068 150.065C23.5097 152 28.488 152 38.4444 152H141.556C151.512 152 156.491 152 160.293 150.065C163.638 148.364 166.358 145.648 168.062 142.309C170 138.512 170 133.541 170 123.6V91.65C170 81.7091 170 76.7382 168.062 72.9415C166.358 69.6018 163.638 66.8861 160.293 65.1848C156.491 63.25 151.512 63.25 141.556 63.25H134.444M90 10V116.5M90 10L63.3333 36.625M90 10L116.667 36.625"
        stroke="#C1B6DE" stroke-width="20" stroke-linecap="round" stroke-linejoin="round" />
</svg>